<svg width="24" height="24" viewBox="0 0 24 24" fill="none" xmlns="http://www.w3.org/2000/svg">
<g clip-path="url(#clip0_1228_1537)">
<path d="M3.87467 20.6667V19.8307C4.46578 19.797 4.91333 19.6619 5.21733 19.4254C5.53822 19.189 5.75778 18.8596 5.876 18.4374C6.01111 18.0152 6.07867 17.517 6.07867 16.9427L6.00267 4.98541L2.96267 6.93608L2.456 6.20141L7.396 2.52808H8.25733L8.28267 17.9054C8.28267 18.2263 8.27422 18.5387 8.25733 18.8427C8.25733 19.1467 8.24044 19.417 8.20667 19.6534C8.56133 19.6365 8.916 19.6196 9.27067 19.6027C9.62533 19.5859 9.98 19.569 10.3347 19.5521V20.6667H3.87467ZM13.1025 20.6667V19.8307C13.6936 19.797 14.1412 19.6619 14.4452 19.4254C14.7661 19.189 14.9856 18.8596 15.1039 18.4374C15.239 18.0152 15.3065 17.517 15.3065 16.9427L15.2305 4.98541L12.1905 6.93608L11.6839 6.20141L16.6239 2.52808H17.4852L17.5105 17.9054C17.5105 18.2263 17.5021 18.5387 17.4852 18.8427C17.4852 19.1467 17.4683 19.417 17.4345 19.6534C17.7892 19.6365 18.1439 19.6196 18.4985 19.6027C18.8532 19.5859 19.2079 19.569 19.5625 19.5521V20.6667H13.1025Z" fill="#F97316"/>
<rect x="7.8606" y="5" width="16.4525" height="1" transform="rotate(59.3857 7.8606 5)" fill="#F97316"/>
</g>
<defs>
<clipPath id="clip0_1228_1537">
<rect width="24" height="24" fill="white"/>
</clipPath>
</defs>
</svg>
